<svg width="74" height="61" viewBox="0 0 74 61" fill="none" xmlns="http://www.w3.org/2000/svg">
<path d="M68.0276 50.8188C62.9844 56.4417 55.2751 59.3641 45.1176 59.506L41.4677 59.557L41.3239 49.2681L44.2502 48.6394C49.2365 47.5695 52.6874 45.5536 54.5084 42.6406C55.458 41.0717 55.9839 39.2832 56.0349 37.4501L44.8116 37.6069C43.8436 37.6204 42.9098 37.2488 42.2158 36.5739C41.5217 35.899 41.1242 34.976 41.1107 34.008L40.7537 8.45906C40.6974 4.43328 43.9256 1.11361 47.9514 1.05735L69.8505 0.751332C70.8185 0.737805 71.7522 1.10937 72.4463 1.78428C73.1403 2.4592 73.5378 3.38218 73.5514 4.35018L73.8064 22.5994L73.9443 33.2535C73.9828 33.6582 74.8104 43.2476 68.0276 50.8188ZM7.80299 1.61839L29.7021 1.31237C30.6701 1.29884 31.6038 1.6704 32.2979 2.34532C32.9919 3.02023 33.3894 3.94322 33.403 4.91122L33.658 23.1605L33.7959 33.8146C33.8344 34.2192 34.662 43.8087 27.8792 51.3798C22.8361 57.0028 15.1267 59.9251 4.96919 60.067L1.31934 60.118L1.17556 49.8291L4.10183 49.2005C9.08815 48.1305 12.539 46.1147 14.3601 43.2016C15.3096 41.6327 15.8355 39.8442 15.8865 38.0111L4.66317 38.1679C3.69517 38.1814 2.76144 37.8099 2.06739 37.135C1.37335 36.4601 0.975843 35.5371 0.962316 34.5691L0.605293 9.0201C0.549036 4.99431 3.7772 1.67465 7.80299 1.61839Z" fill="white"/>
</svg>
