<svg width="37" height="37" viewBox="0 0 37 37" fill="none" xmlns="http://www.w3.org/2000/svg">
<path d="M21.0537 29.3815C21.2818 29.8831 21.7376 30.1566 22.2392 30.1566C22.4215 30.1566 22.6041 30.1111 22.7863 30.0199C23.4702 29.7005 23.7441 28.9254 23.4247 28.2415C23.4247 28.2415 20.9166 22.4959 20.4609 20.3983C20.2786 19.6686 20.1873 17.7079 20.1415 16.796C20.1415 16.4767 20.3238 16.2031 20.5977 16.1121L26.2064 14.425C26.8903 14.2428 27.3009 13.4673 27.1183 12.7834C26.936 12.0996 26.1605 11.6889 25.4767 11.8715C25.4767 11.8715 20.2783 13.5586 18.4086 13.5586C16.5848 13.5586 11.4318 11.917 11.4318 11.917C10.7479 11.7348 9.97246 12.0538 9.7447 12.7377C9.51663 13.4673 9.92696 14.2425 10.6566 14.4248L16.2653 16.1119C16.5389 16.2032 16.767 16.4767 16.7215 16.7958C16.676 17.7077 16.5847 19.6687 16.4021 20.398C15.946 22.4958 13.4383 28.2412 13.4383 28.2412C13.1189 28.9251 13.4383 29.7006 14.0767 30.0196C14.2589 30.1109 14.4415 30.1564 14.6238 30.1564C15.1254 30.1564 15.627 29.8828 15.8093 29.3812L18.5002 23.9093L21.0537 29.3815Z" fill="white"/>
<path d="M21.0543 9.68242C21.0543 11.0928 19.9111 12.2359 18.5008 12.2359C17.0904 12.2359 15.9473 11.0928 15.9473 9.68242C15.9473 8.27208 17.0904 7.12891 18.5008 7.12891C19.9111 7.12891 21.0543 8.27208 21.0543 9.68242Z" fill="white"/>
<path d="M36.5123 18.8011C36.5123 8.86026 28.441 0.789062 18.5003 0.789062C8.55956 0.789062 0.488281 8.86034 0.488281 18.8011C0.488281 28.7418 8.55956 36.8131 18.5003 36.8131C28.441 36.8131 36.5123 28.7418 36.5123 18.8011ZM3.49788 18.8011C3.49788 10.5019 10.2466 3.79866 18.5003 3.79866C26.754 3.79866 33.5027 10.5015 33.5027 18.8011C33.5027 27.1006 26.7998 33.8035 18.5003 33.8035C10.2008 33.8035 3.49788 27.1006 3.49788 18.8011V18.8011Z" fill="white"/>
</svg>
