<svg width="42" height="42" viewBox="0 0 42 42" fill="none" xmlns="http://www.w3.org/2000/svg">
<path d="M12.2503 0.167969H29.7503C36.417 0.167969 41.8337 5.58464 41.8337 12.2513V29.7513C41.8337 32.956 40.5606 36.0294 38.2945 38.2955C36.0285 40.5616 32.955 41.8346 29.7503 41.8346H12.2503C5.58366 41.8346 0.166992 36.418 0.166992 29.7513V12.2513C0.166992 9.0466 1.44005 5.97316 3.70612 3.7071C5.97218 1.44103 9.04563 0.167969 12.2503 0.167969ZM11.8337 4.33464C9.84454 4.33464 7.93688 5.12481 6.53036 6.53134C5.12384 7.93786 4.33366 9.84551 4.33366 11.8346V30.168C4.33366 34.3138 7.68783 37.668 11.8337 37.668H30.167C32.1561 37.668 34.0638 36.8778 35.4703 35.4713C36.8768 34.0648 37.667 32.1571 37.667 30.168V11.8346C37.667 7.6888 34.3128 4.33464 30.167 4.33464H11.8337ZM31.9378 7.45964C32.6285 7.45964 33.2909 7.734 33.7793 8.22238C34.2676 8.71075 34.542 9.37313 34.542 10.0638C34.542 10.7545 34.2676 11.4169 33.7793 11.9052C33.2909 12.3936 32.6285 12.668 31.9378 12.668C31.2472 12.668 30.5848 12.3936 30.0964 11.9052C29.608 11.4169 29.3337 10.7545 29.3337 10.0638C29.3337 9.37313 29.608 8.71075 30.0964 8.22238C30.5848 7.734 31.2472 7.45964 31.9378 7.45964ZM21.0003 10.5846C23.763 10.5846 26.4125 11.6821 28.366 13.6356C30.3195 15.5891 31.417 18.2386 31.417 21.0013C31.417 23.764 30.3195 26.4135 28.366 28.367C26.4125 30.3205 23.763 31.418 21.0003 31.418C18.2377 31.418 15.5881 30.3205 13.6346 28.367C11.6811 26.4135 10.5837 23.764 10.5837 21.0013C10.5837 18.2386 11.6811 15.5891 13.6346 13.6356C15.5881 11.6821 18.2377 10.5846 21.0003 10.5846ZM21.0003 14.7513C19.3427 14.7513 17.753 15.4098 16.5809 16.5819C15.4088 17.754 14.7503 19.3437 14.7503 21.0013C14.7503 22.6589 15.4088 24.2486 16.5809 25.4207C17.753 26.5928 19.3427 27.2513 21.0003 27.2513C22.6579 27.2513 24.2476 26.5928 25.4197 25.4207C26.5918 24.2486 27.2503 22.6589 27.2503 21.0013C27.2503 19.3437 26.5918 17.754 25.4197 16.5819C24.2476 15.4098 22.6579 14.7513 21.0003 14.7513Z" fill="white"/>
</svg>
