<svg width="32" height="33" viewBox="0 0 32 33" fill="none" xmlns="http://www.w3.org/2000/svg">
<path d="M22.7708 20.5833H21.3554L20.8538 20.0996C22.6096 18.0571 23.6667 15.4054 23.6667 12.5208C23.6667 6.08875 18.4529 0.875 12.0208 0.875C5.58875 0.875 0.375 6.08875 0.375 12.5208C0.375 18.9529 5.58875 24.1667 12.0208 24.1667C14.9054 24.1667 17.5571 23.1096 19.5996 21.3538L20.0833 21.8554V23.2708L29.0417 32.2113L31.7113 29.5417L22.7708 20.5833ZM12.0208 20.5833C7.55958 20.5833 3.95833 16.9821 3.95833 12.5208C3.95833 8.05958 7.55958 4.45833 12.0208 4.45833C16.4821 4.45833 20.0833 8.05958 20.0833 12.5208C20.0833 16.9821 16.4821 20.5833 12.0208 20.5833Z" fill="#282828"/>
</svg>
