<svg width="48" height="39" viewBox="0 0 48 39" fill="none" xmlns="http://www.w3.org/2000/svg">
<path d="M47.5348 4.5C45.8023 5.2875 43.9348 5.805 41.9998 6.0525C43.9798 4.86 45.5098 2.97 46.2298 0.6975C44.3623 1.8225 42.2923 2.61 40.1098 3.06C38.3323 1.125 35.8348 0 32.9998 0C27.7123 0 23.3923 4.32 23.3923 9.6525C23.3923 10.4175 23.4823 11.16 23.6398 11.8575C15.6298 11.4525 8.49734 7.605 3.74984 1.7775C2.91734 3.195 2.44484 4.86 2.44484 6.615C2.44484 9.9675 4.13234 12.9375 6.74234 14.625C5.14484 14.625 3.65984 14.175 2.35484 13.5C2.35484 13.5 2.35484 13.5 2.35484 13.5675C2.35484 18.2475 5.68484 22.1625 10.0948 23.04C9.28484 23.265 8.42984 23.3775 7.55234 23.3775C6.94484 23.3775 6.33734 23.31 5.75234 23.1975C6.96734 27 10.4998 29.835 14.7523 29.9025C11.4673 32.5125 7.30484 34.0425 2.75984 34.0425C1.99484 34.0425 1.22984 33.9975 0.464844 33.9075C4.73984 36.6525 9.82484 38.25 15.2698 38.25C32.9998 38.25 42.7423 23.535 42.7423 10.7775C42.7423 10.35 42.7423 9.945 42.7198 9.5175C44.6098 8.1675 46.2298 6.4575 47.5348 4.5Z" fill="white"/>
</svg>
